<svg width="55" height="53" viewBox="0 0 55 53" fill="none" xmlns="http://www.w3.org/2000/svg">
<ellipse cx="27.5315" cy="26.2157" rx="26.5941" ry="25.7882" fill="#32A7E2"/>
<path fill-rule="evenodd" clip-rule="evenodd" d="M23.9856 31.3734C23.0104 31.3734 22.2215 32.147 22.2215 33.0926C22.2215 34.0381 23.0104 34.8118 23.9856 34.8118C24.9607 34.8118 25.7585 34.0381 25.7585 33.0926C25.7585 32.147 24.9607 31.3734 23.9856 31.3734ZM18.6668 17.6196V19.3388H20.4398L23.631 25.8633L22.4343 27.9693C22.2925 28.21 22.2127 28.4937 22.2127 28.7945C22.2127 29.7401 23.0105 30.5137 23.9856 30.5137H34.6233V28.7945H24.358C24.2338 28.7945 24.1363 28.7 24.1363 28.5796L24.1629 28.4765L24.9608 27.0753H31.565C32.2298 27.0753 32.8149 26.7229 33.1163 26.1899L36.2898 20.6111C36.3608 20.4907 36.3962 20.3446 36.3962 20.1985C36.3962 19.7257 35.9973 19.3388 35.5098 19.3388H22.3989L21.5656 17.6196H18.6668ZM32.8502 31.3734C31.8751 31.3734 31.0862 32.147 31.0862 33.0926C31.0862 34.0381 31.8751 34.8118 32.8502 34.8118C33.8253 34.8118 34.6232 34.0381 34.6232 33.0926C34.6232 32.147 33.8253 31.3734 32.8502 31.3734Z" fill="white"/>
</svg>
